<?xml version="1.0" encoding="UTF-8" standalone="no"?>
<!DOCTYPE svg PUBLIC "-//W3C//DTD SVG 1.1//EN"
 "http://www.w3.org/Graphics/SVG/1.1/DTD/svg11.dtd">
<!-- Generated by graphviz version 2.38.0 (20140413.2041)
 -->
<!-- Title: trip_planner Pages: 1 -->
<svg width="1401pt" height="1233pt"
 viewBox="0.00 0.00 1400.95 1232.91" xmlns="http://www.w3.org/2000/svg" xmlns:xlink="http://www.w3.org/1999/xlink">
<g id="graph0" class="graph" transform="scale(1 1) rotate(0) translate(4 1228.91)">
<title>trip_planner</title>
<polygon fill="white" stroke="none" points="-4,4 -4,-1228.91 1396.95,-1228.91 1396.95,4 -4,4"/>
<!-- UAddress -->
<g id="node1" class="node"><title>UAddress</title>
<ellipse fill="none" stroke="black" cx="1160.86" cy="-1129.91" rx="39.1716" ry="18"/>
<ellipse fill="none" stroke="black" cx="1160.86" cy="-1129.91" rx="43.18" ry="22"/>
<text text-anchor="middle" x="1160.86" y="-1125.71" font-family="Times,serif" font-size="14.00">Address</text>
</g>
<!-- USER -->
<g id="node8" class="node"><title>USER</title>
<polygon fill="none" stroke="black" points="979.859,-1070.91 925.859,-1070.91 925.859,-1034.91 979.859,-1034.91 979.859,-1070.91"/>
<text text-anchor="middle" x="952.859" y="-1048.71" font-family="Times,serif" font-size="14.00">USER</text>
</g>
<!-- UAddress&#45;&#45;USER -->
<g id="edge7" class="edge"><title>UAddress&#45;&#45;USER</title>
<path fill="none" stroke="black" d="M1127.86,-1115.59C1121.26,-1112.99 1114.35,-1110.32 1107.86,-1107.91 1063.26,-1091.31 1010.89,-1073.39 979.863,-1062.93"/>
</g>
<!-- UNumber -->
<g id="node2" class="node"><title>UNumber</title>
<ellipse fill="none" stroke="black" cx="959.859" cy="-1206.91" rx="39.1713" ry="18"/>
<text text-anchor="middle" x="959.859" y="-1202.71" font-family="Times,serif" font-size="14.00">Number</text>
</g>
<!-- UNumber&#45;&#45;UAddress -->
<g id="edge1" class="edge"><title>UNumber&#45;&#45;UAddress</title>
<path fill="none" stroke="black" d="M989.713,-1195.29C1019.67,-1184.57 1067.09,-1167.42 1107.86,-1151.91 1114.33,-1149.44 1121.23,-1146.76 1127.84,-1144.15"/>
</g>
<!-- UStreet -->
<g id="node3" class="node"><title>UStreet</title>
<ellipse fill="none" stroke="black" cx="1047.86" cy="-1206.91" rx="30.9706" ry="18"/>
<text text-anchor="middle" x="1047.86" y="-1202.71" font-family="Times,serif" font-size="14.00">Street</text>
</g>
<!-- UStreet&#45;&#45;UAddress -->
<g id="edge2" class="edge"><title>UStreet&#45;&#45;UAddress</title>
<path fill="none" stroke="black" d="M1067.54,-1192.84C1086.39,-1180.34 1114.91,-1161.41 1135.46,-1147.77"/>
</g>
<!-- UCity -->
<g id="node4" class="node"><title>UCity</title>
<ellipse fill="none" stroke="black" cx="1123.86" cy="-1206.91" rx="27" ry="18"/>
<text text-anchor="middle" x="1123.86" y="-1202.71" font-family="Times,serif" font-size="14.00">City</text>
</g>
<!-- UCity&#45;&#45;UAddress -->
<g id="edge3" class="edge"><title>UCity&#45;&#45;UAddress</title>
<path fill="none" stroke="black" d="M1131.89,-1189.63C1137.41,-1178.43 1144.8,-1163.46 1150.73,-1151.44"/>
</g>
<!-- UState -->
<g id="node5" class="node"><title>UState</title>
<ellipse fill="none" stroke="black" cx="1196.86" cy="-1206.91" rx="27.5804" ry="18"/>
<text text-anchor="middle" x="1196.86" y="-1202.71" font-family="Times,serif" font-size="14.00">State</text>
</g>
<!-- UState&#45;&#45;UAddress -->
<g id="edge4" class="edge"><title>UState&#45;&#45;UAddress</title>
<path fill="none" stroke="black" d="M1188.87,-1189.26C1183.53,-1178.13 1176.45,-1163.4 1170.75,-1151.52"/>
</g>
<!-- UZip -->
<g id="node6" class="node"><title>UZip</title>
<ellipse fill="none" stroke="black" cx="1269.86" cy="-1206.91" rx="27" ry="18"/>
<text text-anchor="middle" x="1269.86" y="-1202.71" font-family="Times,serif" font-size="14.00">Zip</text>
</g>
<!-- UZip&#45;&#45;UAddress -->
<g id="edge5" class="edge"><title>UZip&#45;&#45;UAddress</title>
<path fill="none" stroke="black" d="M1251.37,-1193.19C1233.27,-1180.73 1205.58,-1161.68 1185.59,-1147.93"/>
</g>
<!-- UCountry -->
<g id="node7" class="node"><title>UCountry</title>
<ellipse fill="none" stroke="black" cx="1353.86" cy="-1206.91" rx="39.1887" ry="18"/>
<text text-anchor="middle" x="1353.86" y="-1202.71" font-family="Times,serif" font-size="14.00">Country</text>
</g>
<!-- UCountry&#45;&#45;UAddress -->
<g id="edge6" class="edge"><title>UCountry&#45;&#45;UAddress</title>
<path fill="none" stroke="black" d="M1324.97,-1194.68C1290.05,-1181.11 1231.42,-1158.33 1194.5,-1143.98"/>
</g>
<!-- USER_TRIP -->
<g id="node41" class="node"><title>USER_TRIP</title>
<polygon fill="none" stroke="black" points="857.859,-980.869 803.922,-962.691 857.859,-944.513 911.797,-962.691 857.859,-980.869"/>
<polygon fill="none" stroke="black" points="857.859,-985.127 791.285,-962.691 857.859,-940.255 924.433,-962.691 857.859,-985.127"/>
<text text-anchor="middle" x="857.859" y="-958.491" font-family="Times,serif" font-size="14.00">PLANS</text>
</g>
<!-- USER&#45;&#45;USER_TRIP -->
<g id="edge38" class="edge"><title>USER&#45;&#45;USER_TRIP</title>
<path fill="none" stroke="black" d="M934.542,-1034.9C917.289,-1018.88 891.648,-995.067 874.843,-979.462"/>
<text text-anchor="middle" x="917.359" y="-1005.71" font-family="Times,serif" font-size="14.00">1</text>
</g>
<!-- OWNS -->
<g id="node56" class="node"><title>OWNS</title>
<polygon fill="none" stroke="black" points="938.859,-922.474 887.626,-904.474 938.859,-886.474 990.093,-904.474 938.859,-922.474"/>
<text text-anchor="middle" x="938.859" y="-900.274" font-family="Times,serif" font-size="14.00">OWNS</text>
</g>
<!-- USER&#45;&#45;OWNS -->
<g id="edge56" class="edge"><title>USER&#45;&#45;OWNS</title>
<path fill="none" stroke="black" d="M951.226,-1034.82C948.514,-1006.46 943.116,-949.994 940.439,-922"/>
<text text-anchor="middle" x="952.359" y="-1005.71" font-family="Times,serif" font-size="14.00">1</text>
</g>
<!-- WRITES -->
<g id="node58" class="node"><title>WRITES</title>
<polygon fill="none" stroke="black" points="1055.86,-980.831 995.071,-962.691 1055.86,-944.551 1116.65,-962.691 1055.86,-980.831"/>
<polygon fill="none" stroke="black" points="1055.86,-985.035 980.984,-962.691 1055.86,-940.347 1130.73,-962.691 1055.86,-985.035"/>
<text text-anchor="middle" x="1055.86" y="-958.491" font-family="Times,serif" font-size="14.00">WRITES</text>
</g>
<!-- USER&#45;&#45;WRITES -->
<g id="edge61" class="edge"><title>USER&#45;&#45;WRITES</title>
<path fill="none" stroke="black" d="M972.719,-1034.9C991.308,-1018.98 1018.88,-995.364 1037.1,-979.756"/>
<text text-anchor="middle" x="1013.36" y="-1005.71" font-family="Times,serif" font-size="14.00">1</text>
</g>
<!-- IsAdmin -->
<g id="node9" class="node"><title>IsAdmin</title>
<ellipse fill="none" stroke="black" cx="782.859" cy="-1129.91" rx="41.118" ry="18"/>
<text text-anchor="middle" x="782.859" y="-1125.71" font-family="Times,serif" font-size="14.00">IsAdmin</text>
</g>
<!-- IsAdmin&#45;&#45;USER -->
<g id="edge10" class="edge"><title>IsAdmin&#45;&#45;USER</title>
<path fill="none" stroke="black" d="M810.931,-1116.52C842.712,-1102.5 894.144,-1079.81 925.59,-1065.94"/>
</g>
<!-- UName -->
<g id="node10" class="node"><title>UName</title>
<ellipse fill="none" stroke="black" cx="872.859" cy="-1129.91" rx="31.4462" ry="18"/>
<text text-anchor="middle" x="872.859" y="-1125.71" font-family="Times,serif" font-size="14.00">Name</text>
</g>
<!-- UName&#45;&#45;USER -->
<g id="edge8" class="edge"><title>UName&#45;&#45;USER</title>
<path fill="none" stroke="black" d="M888.665,-1114.09C901.87,-1101.71 920.711,-1084.05 934.567,-1071.06"/>
</g>
<!-- Email -->
<g id="node11" class="node"><title>Email</title>
<ellipse fill="none" stroke="black" cx="952.859" cy="-1129.91" rx="31.4549" ry="18"/>
<text text-anchor="start" x="936.142" y="-1126.71" font-family="Times,serif" text-decoration="underline" font-size="14.00">Email</text>
</g>
<!-- Email&#45;&#45;USER -->
<g id="edge9" class="edge"><title>Email&#45;&#45;USER</title>
<path fill="none" stroke="black" d="M952.859,-1111.89C952.859,-1099.7 952.859,-1083.35 952.859,-1071.12"/>
</g>
<!-- Suspended -->
<g id="node12" class="node"><title>Suspended</title>
<ellipse fill="none" stroke="black" cx="1050.86" cy="-1129.91" rx="48.3514" ry="18"/>
<text text-anchor="middle" x="1050.86" y="-1125.71" font-family="Times,serif" font-size="14.00">Suspended</text>
</g>
<!-- Suspended&#45;&#45;USER -->
<g id="edge11" class="edge"><title>Suspended&#45;&#45;USER</title>
<path fill="none" stroke="black" d="M1030.55,-1113.37C1014.41,-1101.01 991.842,-1083.74 975.189,-1071"/>
</g>
<!-- ATTRACTION -->
<g id="node13" class="node"><title>ATTRACTION</title>
<polygon fill="none" stroke="black" points="681.742,-469.799 577.976,-469.799 577.976,-433.799 681.742,-433.799 681.742,-469.799"/>
<text text-anchor="middle" x="629.859" y="-447.599" font-family="Times,serif" font-size="14.00">ATTRACTION</text>
</g>
<!-- HoursOfOperation -->
<g id="node17" class="node"><title>HoursOfOperation</title>
<ellipse fill="none" stroke="black" cx="424.859" cy="-365.799" rx="76.3312" ry="18"/>
<text text-anchor="middle" x="424.859" y="-361.599" font-family="Times,serif" font-size="14.00">HoursOfOperation</text>
</g>
<!-- ATTRACTION&#45;&#45;HoursOfOperation -->
<g id="edge15" class="edge"><title>ATTRACTION&#45;&#45;HoursOfOperation</title>
<path fill="none" stroke="black" d="M587.88,-433.597C550.629,-418.334 496.765,-396.262 461.293,-381.728"/>
</g>
<!-- sub_attraction -->
<g id="node28" class="node"><title>sub_attraction</title>
<ellipse fill="none" stroke="black" cx="657.859" cy="-365.799" rx="18" ry="18"/>
<text text-anchor="middle" x="657.859" y="-361.599" font-family="Times,serif" font-size="14.00">o</text>
</g>
<!-- ATTRACTION&#45;&#45;sub_attraction -->
<g id="edge19" class="edge"><title>ATTRACTION&#45;&#45;sub_attraction</title>
<path fill="none" stroke="black" d="M635.661,-433.394C640.594,-418.593 647.625,-397.5 652.445,-383.041"/>
</g>
<!-- NEAREST_TO -->
<g id="node33" class="node"><title>NEAREST_TO</title>
<polygon fill="none" stroke="black" points="828.859,-383.799 735.804,-365.799 828.859,-347.799 921.915,-365.799 828.859,-383.799"/>
<text text-anchor="middle" x="828.859" y="-361.599" font-family="Times,serif" font-size="14.00">NEAREST_TO</text>
</g>
<!-- ATTRACTION&#45;&#45;NEAREST_TO -->
<g id="edge30" class="edge"><title>ATTRACTION&#45;&#45;NEAREST_TO</title>
<path fill="none" stroke="black" d="M669.832,-431.755C708.721,-415.339 766.265,-391.049 800.19,-376.729"/>
<path fill="none" stroke="none" d="M670.61,-433.597C709.499,-417.182 767.043,-392.892 800.968,-378.572"/>
<path fill="none" stroke="black" d="M671.388,-435.44C710.277,-419.024 767.821,-394.735 801.746,-380.414"/>
<text text-anchor="middle" x="751.914" y="-404.599" font-family="Times,serif" font-size="14.00">N</text>
</g>
<!-- AName -->
<g id="node14" class="node"><title>AName</title>
<ellipse fill="none" stroke="black" cx="405.859" cy="-537.799" rx="31.4462" ry="18"/>
<text text-anchor="start" x="389.145" y="-534.599" font-family="Times,serif" text-decoration="underline" font-size="14.00">Name</text>
</g>
<!-- AName&#45;&#45;ATTRACTION -->
<g id="edge12" class="edge"><title>AName&#45;&#45;ATTRACTION</title>
<path fill="none" stroke="black" d="M430.314,-526.165C435.43,-524.008 440.805,-521.791 445.859,-519.799 491.244,-501.906 543.563,-483.02 580.783,-469.877"/>
</g>
<!-- AAddress -->
<g id="node15" class="node"><title>AAddress</title>
<ellipse fill="none" stroke="black" cx="493.859" cy="-537.799" rx="39.18" ry="18"/>
<text text-anchor="middle" x="493.859" y="-533.599" font-family="Times,serif" font-size="14.00">Address</text>
</g>
<!-- AAddress&#45;&#45;ATTRACTION -->
<g id="edge13" class="edge"><title>AAddress&#45;&#45;ATTRACTION</title>
<path fill="none" stroke="black" d="M516.317,-522.928C539.856,-508.389 576.869,-485.528 602.194,-469.886"/>
</g>
<!-- ADescription -->
<g id="node16" class="node"><title>ADescription</title>
<ellipse fill="none" stroke="black" cx="601.859" cy="-537.799" rx="51.2329" ry="18"/>
<text text-anchor="middle" x="601.859" y="-533.599" font-family="Times,serif" font-size="14.00">Description</text>
</g>
<!-- ADescription&#45;&#45;ATTRACTION -->
<g id="edge14" class="edge"><title>ADescription&#45;&#45;ATTRACTION</title>
<path fill="none" stroke="black" d="M607.525,-519.8C612.351,-505.322 619.254,-484.613 624.105,-470.06"/>
</g>
<!-- DayOfWeek -->
<g id="node18" class="node"><title>DayOfWeek</title>
<ellipse fill="none" stroke="black" cx="228.859" cy="-279.799" rx="54.1734" ry="18"/>
<text text-anchor="middle" x="228.859" y="-275.599" font-family="Times,serif" font-size="14.00">DayOfWeek</text>
</g>
<!-- HoursOfOperation&#45;&#45;DayOfWeek -->
<g id="edge16" class="edge"><title>HoursOfOperation&#45;&#45;DayOfWeek</title>
<path fill="none" stroke="black" d="M389.818,-349.781C353.152,-334.067 296.093,-309.613 260.679,-294.436"/>
</g>
<!-- OpeningTime -->
<g id="node19" class="node"><title>OpeningTime</title>
<ellipse fill="none" stroke="black" cx="359.859" cy="-279.799" rx="58.8373" ry="18"/>
<text text-anchor="middle" x="359.859" y="-275.599" font-family="Times,serif" font-size="14.00">OpeningTime</text>
</g>
<!-- HoursOfOperation&#45;&#45;OpeningTime -->
<g id="edge17" class="edge"><title>HoursOfOperation&#45;&#45;OpeningTime</title>
<path fill="none" stroke="black" d="M411.706,-347.8C400.354,-333.131 384.052,-312.063 372.772,-297.485"/>
</g>
<!-- ClosingTime -->
<g id="node20" class="node"><title>ClosingTime</title>
<ellipse fill="none" stroke="black" cx="492.859" cy="-279.799" rx="55.9646" ry="18"/>
<text text-anchor="middle" x="492.859" y="-275.599" font-family="Times,serif" font-size="14.00">ClosingTime</text>
</g>
<!-- HoursOfOperation&#45;&#45;ClosingTime -->
<g id="edge18" class="edge"><title>HoursOfOperation&#45;&#45;ClosingTime</title>
<path fill="none" stroke="black" d="M438.62,-347.8C450.495,-333.131 467.55,-312.063 479.351,-297.485"/>
</g>
<!-- RESERVED_ATTRACTION -->
<g id="node21" class="node"><title>RESERVED_ATTRACTION</title>
<polygon fill="none" stroke="black" points="748.966,-297.799 566.753,-297.799 566.753,-261.799 748.966,-261.799 748.966,-297.799"/>
<text text-anchor="middle" x="657.859" y="-275.599" font-family="Times,serif" font-size="14.00">RESERVED_ATTRACTION</text>
</g>
<!-- RA_TIME_SLOT -->
<g id="node29" class="node"><title>RA_TIME_SLOT</title>
<polygon fill="none" stroke="black" points="332.859,-207.319 293.61,-189.399 332.859,-171.48 372.108,-189.399 332.859,-207.319"/>
<polygon fill="none" stroke="black" points="332.859,-211.699 284.018,-189.399 332.859,-167.1 381.701,-189.399 332.859,-211.699"/>
<text text-anchor="middle" x="332.859" y="-185.199" font-family="Times,serif" font-size="14.00">HAS</text>
</g>
<!-- RESERVED_ATTRACTION&#45;&#45;RA_TIME_SLOT -->
<g id="edge25" class="edge"><title>RESERVED_ATTRACTION&#45;&#45;RA_TIME_SLOT</title>
<path fill="none" stroke="black" d="M595.196,-261.754C525.103,-242.689 414.548,-212.619 362.202,-198.381"/>
<text text-anchor="middle" x="527.359" y="-232.599" font-family="Times,serif" font-size="14.00">1</text>
</g>
<!-- TIME_SLOT -->
<g id="node22" class="node"><title>TIME_SLOT</title>
<polygon fill="none" stroke="black" points="247.065,-113 154.654,-113 154.654,-77 247.065,-77 247.065,-113"/>
<polygon fill="none" stroke="black" points="251.073,-117 150.645,-117 150.645,-73 251.073,-73 251.073,-117"/>
<text text-anchor="middle" x="200.859" y="-90.8" font-family="Times,serif" font-size="14.00">TIME_SLOT</text>
</g>
<!-- TSStartDateTime -->
<g id="node23" class="node"><title>TSStartDateTime</title>
<ellipse fill="none" stroke="black" cx="61.8592" cy="-18" rx="61.7188" ry="18"/>
<text text-anchor="start" x="20.8949" y="-14.8" font-family="Times,serif" text-decoration="underline" font-size="14.00">StartDateTime</text>
</g>
<!-- TIME_SLOT&#45;&#45;TSStartDateTime -->
<g id="edge22" class="edge"><title>TIME_SLOT&#45;&#45;TSStartDateTime</title>
<path fill="none" stroke="black" d="M161.77,-72.9087C138.965,-60.604 110.719,-45.3633 90.0848,-34.2296"/>
</g>
<!-- TSEndDateTime -->
<g id="node24" class="node"><title>TSEndDateTime</title>
<ellipse fill="none" stroke="black" cx="200.859" cy="-18" rx="59.3046" ry="18"/>
<text text-anchor="start" x="161.84" y="-14.8" font-family="Times,serif" text-decoration="underline" font-size="14.00">EndDateTime</text>
</g>
<!-- TIME_SLOT&#45;&#45;TSEndDateTime -->
<g id="edge23" class="edge"><title>TIME_SLOT&#45;&#45;TSEndDateTime</title>
<path fill="none" stroke="black" d="M200.859,-72.7086C200.859,-61.1023 200.859,-46.9309 200.859,-36.0597"/>
</g>
<!-- Quantity -->
<g id="node25" class="node"><title>Quantity</title>
<ellipse fill="none" stroke="black" cx="318.859" cy="-18" rx="41.1093" ry="18"/>
<text text-anchor="middle" x="318.859" y="-13.8" font-family="Times,serif" font-size="14.00">Quantity</text>
</g>
<!-- TIME_SLOT&#45;&#45;Quantity -->
<g id="edge24" class="edge"><title>TIME_SLOT&#45;&#45;Quantity</title>
<path fill="none" stroke="black" d="M234.043,-72.9087C253.948,-60.2574 278.736,-44.5023 296.363,-33.2987"/>
</g>
<!-- PAID_ATTRACTION -->
<g id="node26" class="node"><title>PAID_ATTRACTION</title>
<polygon fill="none" stroke="black" points="909.126,-297.799 766.592,-297.799 766.592,-261.799 909.126,-261.799 909.126,-297.799"/>
<text text-anchor="middle" x="837.859" y="-275.599" font-family="Times,serif" font-size="14.00">PAID_ATTRACTION</text>
</g>
<!-- Price -->
<g id="node27" class="node"><title>Price</title>
<ellipse fill="none" stroke="black" cx="837.859" cy="-189.399" rx="28.0565" ry="18"/>
<text text-anchor="middle" x="837.859" y="-185.199" font-family="Times,serif" font-size="14.00">Price</text>
</g>
<!-- PAID_ATTRACTION&#45;&#45;Price -->
<g id="edge27" class="edge"><title>PAID_ATTRACTION&#45;&#45;Price</title>
<path fill="none" stroke="black" d="M837.859,-261.754C837.859,-246.201 837.859,-223.324 837.859,-207.693"/>
</g>
<!-- sub_attraction&#45;&#45;RESERVED_ATTRACTION -->
<g id="edge20" class="edge"><title>sub_attraction&#45;&#45;RESERVED_ATTRACTION</title>
<path fill="none" stroke="black" d="M657.859,-337.129C657.859,-324.179 657.859,-309.164 657.859,-297.894"/>
<polygon fill="black" stroke="black" points="654.359,-337.394 657.859,-347.394 661.359,-337.394 654.359,-337.394"/>
</g>
<!-- sub_attraction&#45;&#45;PAID_ATTRACTION -->
<g id="edge21" class="edge"><title>sub_attraction&#45;&#45;PAID_ATTRACTION</title>
<path fill="none" stroke="black" d="M683.005,-353.064C713.733,-338.725 765.969,-314.347 801.179,-297.916"/>
<polygon fill="black" stroke="black" points="681.415,-349.944 673.833,-357.344 684.375,-356.287 681.415,-349.944"/>
</g>
<!-- RA_TIME_SLOT&#45;&#45;TIME_SLOT -->
<g id="edge26" class="edge"><title>RA_TIME_SLOT&#45;&#45;TIME_SLOT</title>
<path fill="none" stroke="black" d="M313.08,-176.995C291.476,-161.872 255.56,-136.732 229.944,-118.801"/>
<path fill="none" stroke="none" d="M314.227,-175.357C292.623,-160.234 256.707,-135.093 231.091,-117.162"/>
<path fill="none" stroke="black" d="M315.374,-173.718C293.77,-158.596 257.854,-133.455 232.238,-115.524"/>
<text text-anchor="middle" x="278.914" y="-137.8" font-family="Times,serif" font-size="14.00">N</text>
</g>
<!-- PUBLIC_TRANSPORTATION -->
<g id="node30" class="node"><title>PUBLIC_TRANSPORTATION</title>
<polygon fill="none" stroke="black" points="1120.87,-297.799 926.845,-297.799 926.845,-261.799 1120.87,-261.799 1120.87,-297.799"/>
<text text-anchor="middle" x="1023.86" y="-275.599" font-family="Times,serif" font-size="14.00">PUBLIC_TRANSPORTATION</text>
</g>
<!-- TName -->
<g id="node31" class="node"><title>TName</title>
<ellipse fill="none" stroke="black" cx="979.859" cy="-189.399" rx="31.4462" ry="18"/>
<text text-anchor="start" x="963.145" y="-186.199" font-family="Times,serif" text-decoration="underline" font-size="14.00">Name</text>
</g>
<!-- PUBLIC_TRANSPORTATION&#45;&#45;TName -->
<g id="edge28" class="edge"><title>PUBLIC_TRANSPORTATION&#45;&#45;TName</title>
<path fill="none" stroke="black" d="M1015.38,-261.754C1007.48,-245.9 995.805,-222.435 988.019,-206.794"/>
</g>
<!-- TAddress -->
<g id="node32" class="node"><title>TAddress</title>
<ellipse fill="none" stroke="black" cx="1067.86" cy="-189.399" rx="39.18" ry="18"/>
<text text-anchor="middle" x="1067.86" y="-185.199" font-family="Times,serif" font-size="14.00">Address</text>
</g>
<!-- PUBLIC_TRANSPORTATION&#45;&#45;TAddress -->
<g id="edge29" class="edge"><title>PUBLIC_TRANSPORTATION&#45;&#45;TAddress</title>
<path fill="none" stroke="black" d="M1032.34,-261.754C1040.18,-246.001 1051.77,-222.732 1059.55,-207.092"/>
</g>
<!-- NEAREST_TO&#45;&#45;PUBLIC_TRANSPORTATION -->
<g id="edge31" class="edge"><title>NEAREST_TO&#45;&#45;PUBLIC_TRANSPORTATION</title>
<path fill="none" stroke="black" d="M856.384,-352.942C889.769,-338.561 946.289,-314.214 984.327,-297.828"/>
<text text-anchor="middle" x="946.359" y="-318.599" font-family="Times,serif" font-size="14.00">1</text>
</g>
<!-- TRIP -->
<g id="node34" class="node"><title>TRIP</title>
<polygon fill="none" stroke="black" points="605.859,-864.474 551.859,-864.474 551.859,-828.474 605.859,-828.474 605.859,-864.474"/>
<polygon fill="none" stroke="black" points="609.859,-868.474 547.859,-868.474 547.859,-824.474 609.859,-824.474 609.859,-868.474"/>
<text text-anchor="middle" x="578.859" y="-842.274" font-family="Times,serif" font-size="14.00">TRIP</text>
</g>
<!-- TRIP_ACTIVITY -->
<g id="node46" class="node"><title>TRIP_ACTIVITY</title>
<polygon fill="none" stroke="black" points="578.859,-770.454 502.335,-752.365 578.859,-734.275 655.383,-752.365 578.859,-770.454"/>
<polygon fill="none" stroke="black" points="578.859,-774.584 484.866,-752.365 578.859,-730.146 672.853,-752.365 578.859,-774.584"/>
<text text-anchor="middle" x="578.859" y="-748.165" font-family="Times,serif" font-size="14.00">CONTAINS</text>
</g>
<!-- TRIP&#45;&#45;TRIP_ACTIVITY -->
<g id="edge44" class="edge"><title>TRIP&#45;&#45;TRIP_ACTIVITY</title>
<path fill="none" stroke="black" d="M578.859,-824.111C578.859,-809.23 578.859,-789.467 578.859,-774.612"/>
<text text-anchor="middle" x="582.359" y="-795.274" font-family="Times,serif" font-size="14.00">1</text>
</g>
<!-- PAID_WITH -->
<g id="node51" class="node"><title>PAID_WITH</title>
<polygon fill="none" stroke="black" points="788.859,-770.365 707.413,-752.365 788.859,-734.365 870.305,-752.365 788.859,-770.365"/>
<text text-anchor="middle" x="788.859" y="-748.165" font-family="Times,serif" font-size="14.00">PAID_WITH</text>
</g>
<!-- TRIP&#45;&#45;PAID_WITH -->
<g id="edge50" class="edge"><title>TRIP&#45;&#45;PAID_WITH</title>
<path fill="none" stroke="black" d="M610.298,-831.684C651.833,-813.467 724.228,-781.713 762.847,-764.774"/>
<text text-anchor="middle" x="699.359" y="-795.274" font-family="Times,serif" font-size="14.00">1</text>
</g>
<!-- City -->
<g id="node35" class="node"><title>City</title>
<ellipse fill="none" stroke="black" cx="162.859" cy="-962.691" rx="27" ry="18"/>
<text text-anchor="start" x="150.801" y="-959.491" font-family="Times,serif" text-decoration="underline" font-size="14.00">City</text>
</g>
<!-- City&#45;&#45;TRIP -->
<g id="edge32" class="edge"><title>City&#45;&#45;TRIP</title>
<path fill="none" stroke="black" d="M181.987,-949.678C187.354,-946.512 193.256,-943.217 198.859,-940.474 257.27,-911.878 272.15,-903.71 334.859,-886.474 409.73,-865.895 500.702,-854.92 547.581,-850.256"/>
</g>
<!-- StartDate -->
<g id="node36" class="node"><title>StartDate</title>
<ellipse fill="none" stroke="black" cx="251.859" cy="-962.691" rx="43.506" ry="18"/>
<text text-anchor="start" x="225.425" y="-959.491" font-family="Times,serif" text-decoration="underline" font-size="14.00">StartDate</text>
</g>
<!-- StartDate&#45;&#45;TRIP -->
<g id="edge33" class="edge"><title>StartDate&#45;&#45;TRIP</title>
<path fill="none" stroke="black" d="M278.926,-948.497C312.883,-932.312 373.179,-904.774 426.859,-886.474 467.86,-872.497 516.565,-860.837 547.588,-854.008"/>
</g>
<!-- Booked -->
<g id="node37" class="node"><title>Booked</title>
<ellipse fill="none" stroke="black" cx="350.859" cy="-962.691" rx="37.7352" ry="18"/>
<text text-anchor="middle" x="350.859" y="-958.491" font-family="Times,serif" font-size="14.00">Booked</text>
</g>
<!-- Booked&#45;&#45;TRIP -->
<g id="edge34" class="edge"><title>Booked&#45;&#45;TRIP</title>
<path fill="none" stroke="black" d="M376.13,-949.031C418.102,-928.006 502.066,-885.944 547.661,-863.103"/>
</g>
<!-- TStartDateTime -->
<g id="node38" class="node"><title>TStartDateTime</title>
<ellipse fill="none" stroke="black" stroke-dasharray="1,5" cx="467.859" cy="-962.691" rx="61.7188" ry="18"/>
<text text-anchor="middle" x="467.859" y="-958.491" font-family="Times,serif" font-size="14.00">StartDateTime</text>
</g>
<!-- TStartDateTime&#45;&#45;TRIP -->
<g id="edge35" class="edge"><title>TStartDateTime&#45;&#45;TRIP</title>
<path fill="none" stroke="black" d="M484.238,-944.838C503.897,-924.608 536.882,-890.668 558.253,-868.677"/>
</g>
<!-- TEndDateTime -->
<g id="node39" class="node"><title>TEndDateTime</title>
<ellipse fill="none" stroke="black" stroke-dasharray="1,5" cx="606.859" cy="-962.691" rx="59.3046" ry="18"/>
<text text-anchor="middle" x="606.859" y="-958.491" font-family="Times,serif" font-size="14.00">EndDateTime</text>
</g>
<!-- TEndDateTime&#45;&#45;TRIP -->
<g id="edge36" class="edge"><title>TEndDateTime&#45;&#45;TRIP</title>
<path fill="none" stroke="black" d="M602.607,-944.344C597.619,-924 589.356,-890.29 584.01,-868.483"/>
</g>
<!-- TotalCost -->
<g id="node40" class="node"><title>TotalCost</title>
<ellipse fill="none" stroke="black" stroke-dasharray="1,5" cx="728.859" cy="-962.691" rx="44.2422" ry="18"/>
<text text-anchor="middle" x="728.859" y="-958.491" font-family="Times,serif" font-size="14.00">TotalCost</text>
</g>
<!-- TotalCost&#45;&#45;TRIP -->
<g id="edge37" class="edge"><title>TotalCost&#45;&#45;TRIP</title>
<path fill="none" stroke="black" d="M708.94,-946.524C682.642,-926.499 636.205,-891.14 606.515,-868.532"/>
</g>
<!-- USER_TRIP&#45;&#45;TRIP -->
<g id="edge39" class="edge"><title>USER_TRIP&#45;&#45;TRIP</title>
<path fill="none" stroke="black" d="M828.294,-951.749C775.528,-930.147 663.788,-884.403 609.296,-862.095"/>
<path fill="none" stroke="none" d="M829.052,-949.898C776.285,-928.296 664.546,-882.552 610.054,-860.244"/>
<path fill="none" stroke="black" d="M829.81,-948.047C777.043,-926.445 665.303,-880.701 610.812,-858.394"/>
<text text-anchor="middle" x="763.914" y="-900.274" font-family="Times,serif" font-size="14.00">N</text>
</g>
<!-- ACTIVITY -->
<g id="node42" class="node"><title>ACTIVITY</title>
<polygon fill="none" stroke="black" points="438.749,-645.799 376.97,-645.799 376.97,-609.799 438.749,-609.799 438.749,-645.799"/>
<polygon fill="none" stroke="black" points="442.742,-649.799 372.976,-649.799 372.976,-605.799 442.742,-605.799 442.742,-649.799"/>
<text text-anchor="middle" x="407.859" y="-623.599" font-family="Times,serif" font-size="14.00">Activity</text>
</g>
<!-- AT -->
<g id="node45" class="node"><title>AT</title>
<polygon fill="none" stroke="black" points="700.859,-555.799 671.202,-537.799 700.859,-519.799 730.516,-537.799 700.859,-555.799"/>
<text text-anchor="middle" x="700.859" y="-533.599" font-family="Times,serif" font-size="14.00">AT</text>
</g>
<!-- ACTIVITY&#45;&#45;AT -->
<g id="edge42" class="edge"><title>ACTIVITY&#45;&#45;AT</title>
<path fill="none" stroke="black" d="M442.377,-616.705C491.775,-604.834 584.578,-581.18 661.189,-553.914 668.868,-551.186 677.307,-547.586 684.297,-544.429"/>
<path fill="none" stroke="none" d="M442.845,-618.65C492.269,-606.772 585.072,-583.118 661.859,-555.799 669.653,-553.026 678.092,-549.425 685.12,-546.252"/>
<path fill="none" stroke="black" d="M443.312,-620.595C492.763,-608.71 585.566,-585.056 662.53,-557.683 670.438,-554.865 678.877,-551.265 685.943,-548.075"/>
<text text-anchor="middle" x="610.359" y="-576.599" font-family="Times,serif" font-size="14.00">1</text>
</g>
<!-- RESERVATION -->
<g id="node47" class="node"><title>RESERVATION</title>
<polygon fill="none" stroke="black" points="201.859,-555.799 126.173,-537.799 201.859,-519.799 277.545,-537.799 201.859,-555.799"/>
<text text-anchor="middle" x="201.859" y="-533.599" font-family="Times,serif" font-size="14.00">RESERVES</text>
</g>
<!-- ACTIVITY&#45;&#45;RESERVATION -->
<g id="edge48" class="edge"><title>ACTIVITY&#45;&#45;RESERVATION</title>
<path fill="none" stroke="black" d="M372.751,-611.384C368.413,-609.495 364.036,-607.598 359.859,-605.799 313.477,-585.819 259.25,-562.925 227.899,-549.734"/>
<text text-anchor="middle" x="319.359" y="-576.599" font-family="Times,serif" font-size="14.00">1</text>
</g>
<!-- AStartDateTime -->
<g id="node43" class="node"><title>AStartDateTime</title>
<ellipse fill="none" stroke="black" cx="268.859" cy="-752.365" rx="61.7188" ry="18"/>
<text text-anchor="start" x="227.895" y="-749.165" font-family="Times,serif" text-decoration="underline" font-size="14.00">StartDateTime</text>
</g>
<!-- AStartDateTime&#45;&#45;ACTIVITY -->
<g id="edge40" class="edge"><title>AStartDateTime&#45;&#45;ACTIVITY</title>
<path fill="none" stroke="black" d="M287.317,-735.089C312.131,-713.209 356.29,-674.271 383.717,-650.087"/>
</g>
<!-- AEndDateTime -->
<g id="node44" class="node"><title>AEndDateTime</title>
<ellipse fill="none" stroke="black" cx="407.859" cy="-752.365" rx="59.3046" ry="18"/>
<text text-anchor="middle" x="407.859" y="-748.165" font-family="Times,serif" font-size="14.00">EndDateTime</text>
</g>
<!-- AEndDateTime&#45;&#45;ACTIVITY -->
<g id="edge41" class="edge"><title>AEndDateTime&#45;&#45;ACTIVITY</title>
<path fill="none" stroke="black" d="M407.859,-734.322C407.859,-712.221 407.859,-673.683 407.859,-649.799"/>
</g>
<!-- AT&#45;&#45;ATTRACTION -->
<g id="edge43" class="edge"><title>AT&#45;&#45;ATTRACTION</title>
<path fill="none" stroke="black" d="M689.756,-526.761C677.72,-512.52 656.94,-487.936 642.921,-471.35"/>
<path fill="none" stroke="none" d="M691.284,-525.47C679.247,-511.229 658.467,-486.645 644.448,-470.059"/>
<path fill="none" stroke="black" d="M692.811,-524.179C680.775,-509.938 659.995,-485.354 645.976,-468.768"/>
<text text-anchor="middle" x="672.359" y="-490.599" font-family="Times,serif" font-size="14.00">1</text>
</g>
<!-- TRIP_ACTIVITY&#45;&#45;ACTIVITY -->
<g id="edge45" class="edge"><title>TRIP_ACTIVITY&#45;&#45;ACTIVITY</title>
<path fill="none" stroke="black" d="M555.339,-736.967C524.83,-715.099 470.086,-675.861 436.227,-651.592"/>
<path fill="none" stroke="none" d="M556.504,-735.341C525.995,-713.474 471.251,-674.235 437.392,-649.967"/>
<path fill="none" stroke="black" d="M557.669,-733.716C527.16,-711.848 472.416,-672.61 438.557,-648.341"/>
<text text-anchor="middle" x="527.914" y="-685.827" font-family="Times,serif" font-size="14.00">N</text>
</g>
<!-- RESERVATION&#45;&#45;TIME_SLOT -->
<g id="edge49" class="edge"><title>RESERVATION&#45;&#45;TIME_SLOT</title>
<path fill="none" stroke="black" d="M185.951,-523.405C169.707,-508.142 146.859,-481.56 146.859,-452.799 146.859,-452.799 146.859,-452.799 146.859,-188.399 146.859,-161.087 164.664,-134.674 179.827,-117.134"/>
<text text-anchor="middle" x="150.359" y="-318.599" font-family="Times,serif" font-size="14.00">1</text>
</g>
<!-- ReservationNumber -->
<g id="node48" class="node"><title>ReservationNumber</title>
<ellipse fill="none" stroke="black" cx="121.859" cy="-627.799" rx="81.1508" ry="18"/>
<text text-anchor="start" x="65.4867" y="-624.599" font-family="Times,serif" text-decoration="underline" font-size="14.00">ReservationNumber</text>
</g>
<!-- ReservationNumber&#45;&#45;RESERVATION -->
<g id="edge46" class="edge"><title>ReservationNumber&#45;&#45;RESERVATION</title>
<path fill="none" stroke="black" d="M137.284,-609.831C152.358,-593.25 175.035,-568.305 189.117,-552.816"/>
</g>
<!-- NumberInParty -->
<g id="node49" class="node"><title>NumberInParty</title>
<ellipse fill="none" stroke="black" cx="285.859" cy="-627.799" rx="65.239" ry="18"/>
<text text-anchor="middle" x="285.859" y="-623.599" font-family="Times,serif" font-size="14.00">NumberInParty</text>
</g>
<!-- NumberInParty&#45;&#45;RESERVATION -->
<g id="edge47" class="edge"><title>NumberInParty&#45;&#45;RESERVATION</title>
<path fill="none" stroke="black" d="M270.059,-610.247C254.186,-593.617 230,-568.279 215.101,-552.671"/>
</g>
<!-- CREDIT_CARD -->
<g id="node50" class="node"><title>CREDIT_CARD</title>
<polygon fill="none" stroke="black" points="963.308,-645.799 850.41,-645.799 850.41,-609.799 963.308,-609.799 963.308,-645.799"/>
<text text-anchor="middle" x="906.859" y="-623.599" font-family="Times,serif" font-size="14.00">CREDIT_CARD</text>
</g>
<!-- CCNumber -->
<g id="node52" class="node"><title>CCNumber</title>
<ellipse fill="none" stroke="black" cx="798.859" cy="-537.799" rx="50.7655" ry="18"/>
<text text-anchor="start" x="766.583" y="-534.599" font-family="Times,serif" text-decoration="underline" font-size="14.00">CCNumber</text>
</g>
<!-- CREDIT_CARD&#45;&#45;CCNumber -->
<g id="edge52" class="edge"><title>CREDIT_CARD&#45;&#45;CCNumber</title>
<path fill="none" stroke="black" d="M885.779,-609.623C866.258,-593.717 837.456,-570.248 818.432,-554.747"/>
</g>
<!-- CCAddress -->
<g id="node53" class="node"><title>CCAddress</title>
<ellipse fill="none" stroke="black" cx="906.859" cy="-537.799" rx="39.18" ry="18"/>
<text text-anchor="middle" x="906.859" y="-533.599" font-family="Times,serif" font-size="14.00">Address</text>
</g>
<!-- CREDIT_CARD&#45;&#45;CCAddress -->
<g id="edge53" class="edge"><title>CREDIT_CARD&#45;&#45;CCAddress</title>
<path fill="none" stroke="black" d="M906.859,-609.413C906.859,-593.885 906.859,-571.274 906.859,-555.849"/>
</g>
<!-- CCExpiry -->
<g id="node54" class="node"><title>CCExpiry</title>
<ellipse fill="none" stroke="black" cx="997.859" cy="-537.799" rx="34.3527" ry="18"/>
<text text-anchor="middle" x="997.859" y="-533.599" font-family="Times,serif" font-size="14.00">Expiry</text>
</g>
<!-- CREDIT_CARD&#45;&#45;CCExpiry -->
<g id="edge54" class="edge"><title>CREDIT_CARD&#45;&#45;CCExpiry</title>
<path fill="none" stroke="black" d="M924.838,-609.413C941.517,-593.284 966.098,-569.513 982.046,-554.091"/>
</g>
<!-- CVV -->
<g id="node55" class="node"><title>CVV</title>
<ellipse fill="none" stroke="black" cx="1078.86" cy="-537.799" rx="28.5583" ry="18"/>
<text text-anchor="middle" x="1078.86" y="-533.599" font-family="Times,serif" font-size="14.00">CVV</text>
</g>
<!-- CREDIT_CARD&#45;&#45;CVV -->
<g id="edge55" class="edge"><title>CREDIT_CARD&#45;&#45;CVV</title>
<path fill="none" stroke="black" d="M940.431,-609.623C975.039,-591.916 1027.97,-564.837 1057.33,-549.811"/>
</g>
<!-- PAID_WITH&#45;&#45;CREDIT_CARD -->
<g id="edge51" class="edge"><title>PAID_WITH&#45;&#45;CREDIT_CARD</title>
<path fill="none" stroke="black" d="M802.395,-737.305C824.189,-714.668 866.98,-670.221 890.467,-645.825"/>
<text text-anchor="middle" x="871.359" y="-685.827" font-family="Times,serif" font-size="14.00">1</text>
</g>
<!-- OWNS&#45;&#45;CREDIT_CARD -->
<g id="edge57" class="edge"><title>OWNS&#45;&#45;CREDIT_CARD</title>
<path fill="none" stroke="black" d="M936.953,-887.114C931.302,-838.607 914.672,-695.858 908.878,-646.124"/>
<text text-anchor="middle" x="930.359" y="-795.274" font-family="Times,serif" font-size="14.00">1</text>
</g>
<!-- REVIEW -->
<g id="node57" class="node"><title>REVIEW</title>
<polygon fill="none" stroke="black" points="1091.27,-864.474 1020.45,-864.474 1020.45,-828.474 1091.27,-828.474 1091.27,-864.474"/>
<polygon fill="none" stroke="black" points="1095.29,-868.474 1016.43,-868.474 1016.43,-824.474 1095.29,-824.474 1095.29,-868.474"/>
<text text-anchor="middle" x="1055.86" y="-842.274" font-family="Times,serif" font-size="14.00">REVIEW</text>
</g>
<!-- Title -->
<g id="node59" class="node"><title>Title</title>
<ellipse fill="none" stroke="black" cx="961.859" cy="-752.365" rx="27" ry="18"/>
<text text-anchor="middle" x="961.859" y="-748.165" font-family="Times,serif" font-size="14.00">Title</text>
</g>
<!-- REVIEW&#45;&#45;Title -->
<g id="edge58" class="edge"><title>REVIEW&#45;&#45;Title</title>
<path fill="none" stroke="black" d="M1034.06,-824.111C1016.38,-806.786 991.941,-782.842 976.521,-767.732"/>
</g>
<!-- Body -->
<g id="node60" class="node"><title>Body</title>
<ellipse fill="none" stroke="black" cx="1035.86" cy="-752.365" rx="29.0429" ry="18"/>
<text text-anchor="middle" x="1035.86" y="-748.165" font-family="Times,serif" font-size="14.00">Body</text>
</g>
<!-- REVIEW&#45;&#45;Body -->
<g id="edge59" class="edge"><title>REVIEW&#45;&#45;Body</title>
<path fill="none" stroke="black" d="M1051.22,-824.111C1047.67,-807.742 1042.83,-785.466 1039.54,-770.313"/>
</g>
<!-- ReviewDate -->
<g id="node61" class="node"><title>ReviewDate</title>
<ellipse fill="none" stroke="black" cx="1109.86" cy="-752.365" rx="27" ry="18"/>
<text text-anchor="middle" x="1109.86" y="-748.165" font-family="Times,serif" font-size="14.00">Date</text>
</g>
<!-- REVIEW&#45;&#45;ReviewDate -->
<g id="edge60" class="edge"><title>REVIEW&#45;&#45;ReviewDate</title>
<path fill="none" stroke="black" d="M1068.38,-824.111C1078.17,-807.423 1091.55,-784.596 1100.44,-769.435"/>
</g>
<!-- RATES -->
<g id="node62" class="node"><title>RATES</title>
<polygon fill="none" stroke="black" points="1156.86,-708.214 1104.46,-690.027 1156.86,-671.84 1209.25,-690.027 1156.86,-708.214"/>
<polygon fill="none" stroke="black" points="1156.86,-712.486 1092.16,-690.027 1156.86,-667.568 1221.56,-690.027 1156.86,-712.486"/>
<text text-anchor="middle" x="1156.86" y="-685.827" font-family="Times,serif" font-size="14.00">RATES</text>
</g>
<!-- REVIEW&#45;&#45;RATES -->
<g id="edge63" class="edge"><title>REVIEW&#45;&#45;RATES</title>
<path fill="none" stroke="black" d="M1093.98,-822.555C1112.27,-810.59 1132.78,-793.692 1144.12,-773.485 1154.7,-755.269 1156.61,-729.895 1156.34,-712.33"/>
<path fill="none" stroke="none" d="M1095.08,-824.228C1113.54,-812.133 1134.06,-795.235 1145.86,-774.474 1156.69,-755.419 1158.61,-730.045 1158.34,-712.299"/>
<path fill="none" stroke="black" d="M1096.17,-825.901C1114.81,-813.677 1135.33,-796.779 1147.6,-775.462 1158.69,-755.57 1160.6,-730.196 1160.34,-712.268"/>
<text text-anchor="middle" x="1137.91" y="-795.274" font-family="Times,serif" font-size="14.00">N</text>
</g>
<!-- WRITES&#45;&#45;REVIEW -->
<g id="edge62" class="edge"><title>WRITES&#45;&#45;REVIEW</title>
<path fill="none" stroke="black" d="M1053.86,-940.475C1053.86,-919.96 1053.86,-889.053 1053.86,-868.576"/>
<path fill="none" stroke="none" d="M1055.86,-940.475C1055.86,-919.96 1055.86,-889.053 1055.86,-868.576"/>
<path fill="none" stroke="black" d="M1057.86,-940.475C1057.86,-919.96 1057.86,-889.053 1057.86,-868.576"/>
<text text-anchor="middle" x="1060.91" y="-900.274" font-family="Times,serif" font-size="14.00">N</text>
</g>
<!-- RATES&#45;&#45;ATTRACTION -->
<g id="edge64" class="edge"><title>RATES&#45;&#45;ATTRACTION</title>
<path fill="none" stroke="black" d="M1158.75,-668.206C1160.76,-632.126 1159.08,-558.175 1116.86,-519.799 1053.94,-462.612 793.947,-453.857 681.769,-452.786"/>
<text text-anchor="middle" x="1155.36" y="-576.599" font-family="Times,serif" font-size="14.00">1</text>
</g>
</g>
</svg>
