<?xml version="1.0" encoding="UTF-8" standalone="no"?>
<!DOCTYPE svg PUBLIC "-//W3C//DTD SVG 1.1//EN"
 "http://www.w3.org/Graphics/SVG/1.1/DTD/svg11.dtd">
<!-- Generated by graphviz version 2.40.1 (20161225.0304)
 -->
<!-- Title: dr_seuss Pages: 1 -->
<svg width="1009pt" height="1033pt"
 viewBox="0.00 0.00 1009.00 1033.00" xmlns="http://www.w3.org/2000/svg" xmlns:xlink="http://www.w3.org/1999/xlink">
<g id="graph0" class="graph" transform="scale(1 1) rotate(0) translate(4 1029)">
<title>dr_seuss</title>
<polygon fill="#ffffff" stroke="transparent" points="-4,4 -4,-1029 1005,-1029 1005,4 -4,4"/>
<!-- a -->
<g id="node1" class="node">
<title>a</title>
<ellipse fill="none" stroke="#000000" cx="18" cy="-348" rx="18" ry="18"/>
<text text-anchor="middle" x="18" y="-343.8" font-family="Times,serif" font-size="14.00" fill="#000000">a</text>
</g>
<!-- a&#45;&gt;a -->
<g id="edge1" class="edge">
<title>a&#45;&gt;a</title>
<path fill="none" stroke="#000000" d="M9.635,-364.2903C7.6179,-374.3892 10.4063,-384 18,-384 22.8647,-384 25.7573,-380.0557 26.6778,-374.5656"/>
<polygon fill="#000000" stroke="#000000" points="30.1677,-374.1791 26.365,-364.2903 23.171,-374.3922 30.1677,-374.1791"/>
<text text-anchor="middle" x="18" y="-386.8" font-family="Times,serif" font-size="14.00" fill="#000000">0.19</text>
</g>
<!-- b -->
<g id="node2" class="node">
<title>b</title>
<ellipse fill="none" stroke="#000000" cx="114.5" cy="-556" rx="18" ry="18"/>
<text text-anchor="middle" x="114.5" y="-551.8" font-family="Times,serif" font-size="14.00" fill="#000000">b</text>
</g>
<!-- a&#45;&gt;b -->
<g id="edge2" class="edge">
<title>a&#45;&gt;b</title>
<path fill="none" stroke="#000000" d="M25.318,-364.8123C32.5029,-381.2353 43.8332,-406.9133 54,-429 70.2995,-464.4094 89.7919,-505.0326 102.1599,-530.6038"/>
<polygon fill="#000000" stroke="#000000" points="99.0203,-532.1511 106.5297,-539.6251 105.3202,-529.0995 99.0203,-532.1511"/>
<text text-anchor="middle" x="66.25" y="-480.8" font-family="Times,serif" font-size="14.00" fill="#000000">0.19</text>
</g>
<!-- l -->
<g id="node3" class="node">
<title>l</title>
<ellipse fill="none" stroke="#000000" cx="218" cy="-708" rx="18" ry="18"/>
<text text-anchor="middle" x="218" y="-703.8" font-family="Times,serif" font-size="14.00" fill="#000000">l</text>
</g>
<!-- a&#45;&gt;l -->
<g id="edge3" class="edge">
<title>a&#45;&gt;l</title>
<path fill="none" stroke="#000000" d="M19.3106,-366.0888C22.2939,-401.2888 31.1885,-481.0612 54,-544 83.7359,-626.0441 75.1401,-670.9961 150.5,-715 162.7026,-722.1253 178.2873,-721.0376 191.4066,-717.8686"/>
<polygon fill="#000000" stroke="#000000" points="192.6612,-721.1489 201.2878,-714.9981 190.7083,-714.4268 192.6612,-721.1489"/>
<text text-anchor="middle" x="114.5" y="-705.8" font-family="Times,serif" font-size="14.00" fill="#000000">0.12</text>
</g>
<!-- n -->
<g id="node4" class="node">
<title>n</title>
<ellipse fill="none" stroke="#000000" cx="707.5" cy="-466" rx="18" ry="18"/>
<text text-anchor="middle" x="707.5" y="-461.8" font-family="Times,serif" font-size="14.00" fill="#000000">n</text>
</g>
<!-- a&#45;&gt;n -->
<g id="edge4" class="edge">
<title>a&#45;&gt;n</title>
<path fill="none" stroke="#000000" d="M29.8354,-334.3822C36.4928,-327.2027 45.2136,-318.5517 54,-312 71.2178,-299.1613 76.5139,-296.8638 96.5,-289 215.0295,-242.363 255.7675,-246.9826 382,-264 470.1559,-275.8843 499.4443,-270.0529 575,-317 627.1397,-349.3974 670.622,-408.4049 692.4232,-441.6127"/>
<polygon fill="#000000" stroke="#000000" points="689.6294,-443.7389 697.9865,-450.2513 695.5146,-439.9488 689.6294,-443.7389"/>
<text text-anchor="middle" x="369.75" y="-266.8" font-family="Times,serif" font-size="14.00" fill="#000000">0.12</text>
</g>
<!-- r -->
<g id="node5" class="node">
<title>r</title>
<ellipse fill="none" stroke="#000000" cx="983" cy="-130" rx="18" ry="18"/>
<text text-anchor="middle" x="983" y="-125.8" font-family="Times,serif" font-size="14.00" fill="#000000">r</text>
</g>
<!-- a&#45;&gt;r -->
<g id="edge5" class="edge">
<title>a&#45;&gt;r</title>
<path fill="none" stroke="#000000" d="M19.0445,-329.8911C22.1661,-280.1235 32.5664,-142.3612 54,-103 71.0955,-71.6054 78.7526,-50 114.5,-50 114.5,-50 114.5,-50 893.5,-50 927.1334,-50 953.9295,-81.7925 969.1428,-105.2934"/>
<polygon fill="#000000" stroke="#000000" points="966.1676,-107.137 974.3963,-113.8108 972.1255,-103.4622 966.1676,-107.137"/>
<text text-anchor="middle" x="514.5" y="-52.8" font-family="Times,serif" font-size="14.00" fill="#000000">0.062</text>
</g>
<!-- t -->
<g id="node6" class="node">
<title>t</title>
<ellipse fill="none" stroke="#000000" cx="804" cy="-536" rx="18" ry="18"/>
<text text-anchor="middle" x="804" y="-531.8" font-family="Times,serif" font-size="14.00" fill="#000000">t</text>
</g>
<!-- a&#45;&gt;t -->
<g id="edge6" class="edge">
<title>a&#45;&gt;t</title>
<path fill="none" stroke="#000000" d="M18.6229,-366.2326C21.421,-445.0911 33.5895,-757.1448 54,-853 69.4011,-925.3291 40.5494,-1008 114.5,-1008 114.5,-1008 114.5,-1008 369.75,-1008 505.2794,-1008 570.2811,-1054.1274 671.5,-964 733.2686,-908.9999 783.8465,-650.0406 799.2031,-563.9248"/>
<polygon fill="#000000" stroke="#000000" points="802.6892,-564.3091 800.9783,-553.8533 795.7955,-563.0939 802.6892,-564.3091"/>
<text text-anchor="middle" x="418" y="-1013.8" font-family="Times,serif" font-size="14.00" fill="#000000">0.19</text>
</g>
<!-- u -->
<g id="node7" class="node">
<title>u</title>
<ellipse fill="none" stroke="#000000" cx="218" cy="-512" rx="18" ry="18"/>
<text text-anchor="middle" x="218" y="-507.8" font-family="Times,serif" font-size="14.00" fill="#000000">u</text>
</g>
<!-- a&#45;&gt;u -->
<g id="edge7" class="edge">
<title>a&#45;&gt;u</title>
<path fill="none" stroke="#000000" d="M32.0636,-359.5322C66.4185,-387.7032 154.8117,-460.1856 196.1182,-494.0569"/>
<polygon fill="#000000" stroke="#000000" points="193.9999,-496.8462 203.9519,-500.4806 198.4385,-491.4333 193.9999,-496.8462"/>
<text text-anchor="middle" x="114.5" y="-442.8" font-family="Times,serif" font-size="14.00" fill="#000000">0.062</text>
</g>
<!-- w -->
<g id="node8" class="node">
<title>w</title>
<ellipse fill="none" stroke="#000000" cx="514.5" cy="-398" rx="18" ry="18"/>
<text text-anchor="middle" x="514.5" y="-393.8" font-family="Times,serif" font-size="14.00" fill="#000000">w</text>
</g>
<!-- a&#45;&gt;w -->
<g id="edge8" class="edge">
<title>a&#45;&gt;w</title>
<path fill="none" stroke="#000000" d="M33.7112,-338.9345C57.9252,-325.421 106.2102,-300.2726 150.5,-288 208.5492,-271.9147 225.4666,-271.0569 285.5,-276 328.8278,-279.5676 342.2956,-274.2917 382,-292 427.6405,-312.3558 470.9758,-352.28 495.0195,-376.8998"/>
<polygon fill="#000000" stroke="#000000" points="492.679,-379.5159 502.1265,-384.3112 497.7314,-374.671 492.679,-379.5159"/>
<text text-anchor="middle" x="269.75" y="-278.8" font-family="Times,serif" font-size="14.00" fill="#000000">0.062</text>
</g>
<!-- b&#45;&gt;a -->
<g id="edge9" class="edge">
<title>b&#45;&gt;a</title>
<path fill="none" stroke="#000000" d="M99.7428,-545.3011C85.8451,-534.437 65.4932,-516.3518 54,-496 32.4812,-457.8951 23.7398,-407.2085 20.2485,-376.1302"/>
<polygon fill="#000000" stroke="#000000" points="23.713,-375.6029 19.2202,-366.0079 16.7489,-376.3105 23.713,-375.6029"/>
<text text-anchor="middle" x="66.25" y="-528.8" font-family="Times,serif" font-size="14.00" fill="#000000">0.12</text>
</g>
<!-- b&#45;&gt;b -->
<g id="edge10" class="edge">
<title>b&#45;&gt;b</title>
<path fill="none" stroke="#000000" d="M106.135,-572.2903C104.1179,-582.3892 106.9063,-592 114.5,-592 119.3647,-592 122.2573,-588.0557 123.1778,-582.5656"/>
<polygon fill="#000000" stroke="#000000" points="126.6677,-582.1791 122.865,-572.2903 119.671,-582.3922 126.6677,-582.1791"/>
<text text-anchor="middle" x="114.5" y="-594.8" font-family="Times,serif" font-size="14.00" fill="#000000">0.12</text>
</g>
<!-- b&#45;&gt;l -->
<g id="edge13" class="edge">
<title>b&#45;&gt;l</title>
<path fill="none" stroke="#000000" d="M118.0477,-574.0917C124.1468,-603.6545 137.2471,-660.5744 150.5,-676 160.9052,-688.111 176.9142,-695.9743 190.7304,-700.8744"/>
<polygon fill="#000000" stroke="#000000" points="189.7006,-704.2197 200.2916,-703.9371 191.836,-697.5533 189.7006,-704.2197"/>
<text text-anchor="middle" x="166.25" y="-699.8" font-family="Times,serif" font-size="14.00" fill="#000000">0.18</text>
</g>
<!-- b&#45;&gt;u -->
<g id="edge14" class="edge">
<title>b&#45;&gt;u</title>
<path fill="none" stroke="#000000" d="M120.4955,-538.9172C126.063,-525.9289 135.7426,-508.9782 150.5,-501 163.2344,-494.1155 179.1495,-496.2836 192.3272,-500.4432"/>
<polygon fill="#000000" stroke="#000000" points="191.1789,-503.7498 201.7727,-503.8952 193.5818,-497.1752 191.1789,-503.7498"/>
<text text-anchor="middle" x="166.25" y="-503.8" font-family="Times,serif" font-size="14.00" fill="#000000">0.12</text>
</g>
<!-- b&#45;&gt;w -->
<g id="edge15" class="edge">
<title>b&#45;&gt;w</title>
<path fill="none" stroke="#000000" d="M118.528,-538.141C124.7924,-511.9707 137.5062,-465.099 150.5,-454 201.008,-410.8573 409.3185,-400.8567 485.9991,-398.62"/>
<polygon fill="#000000" stroke="#000000" points="486.4204,-402.1101 496.3231,-398.3433 486.2328,-395.1126 486.4204,-402.1101"/>
<text text-anchor="middle" x="321.5" y="-413.8" font-family="Times,serif" font-size="14.00" fill="#000000">0.059</text>
</g>
<!-- e -->
<g id="node9" class="node">
<title>e</title>
<ellipse fill="none" stroke="#000000" cx="321.5" cy="-800" rx="18" ry="18"/>
<text text-anchor="middle" x="321.5" y="-795.8" font-family="Times,serif" font-size="14.00" fill="#000000">e</text>
</g>
<!-- b&#45;&gt;e -->
<g id="edge11" class="edge">
<title>b&#45;&gt;e</title>
<path fill="none" stroke="#000000" d="M115.49,-574.2578C117.8205,-605.0096 125.5113,-668.3442 150.5,-715 165.5651,-743.1277 172.5931,-750.6602 200,-767 229.077,-784.3355 267.4411,-792.7738 293.2131,-796.7353"/>
<polygon fill="#000000" stroke="#000000" points="293.0334,-800.2444 303.4235,-798.1719 294.0087,-793.3127 293.0334,-800.2444"/>
<text text-anchor="middle" x="218" y="-784.8" font-family="Times,serif" font-size="14.00" fill="#000000">0.24</text>
</g>
<!-- i -->
<g id="node10" class="node">
<title>i</title>
<ellipse fill="none" stroke="#000000" cx="611" cy="-707" rx="18" ry="18"/>
<text text-anchor="middle" x="611" y="-702.8" font-family="Times,serif" font-size="14.00" fill="#000000">i</text>
</g>
<!-- b&#45;&gt;i -->
<g id="edge12" class="edge">
<title>b&#45;&gt;i</title>
<path fill="none" stroke="#000000" d="M129.9366,-565.7386C168.6742,-589.2141 273.7757,-647 369.75,-647 369.75,-647 369.75,-647 514.5,-650 544.1975,-650 572.7846,-670.2603 591.0295,-686.6229"/>
<polygon fill="#000000" stroke="#000000" points="588.9655,-689.486 598.6513,-693.7798 593.7572,-684.3831 588.9655,-689.486"/>
<text text-anchor="middle" x="369.75" y="-649.8" font-family="Times,serif" font-size="14.00" fill="#000000">0.12</text>
</g>
<!-- y -->
<g id="node11" class="node">
<title>y</title>
<ellipse fill="none" stroke="#000000" cx="218" cy="-654" rx="18" ry="18"/>
<text text-anchor="middle" x="218" y="-649.8" font-family="Times,serif" font-size="14.00" fill="#000000">y</text>
</g>
<!-- b&#45;&gt;y -->
<g id="edge16" class="edge">
<title>b&#45;&gt;y</title>
<path fill="none" stroke="#000000" d="M115.9036,-574.1204C118.6412,-595.8004 126.7128,-631.3742 150.5,-649 161.6748,-657.2803 176.9452,-658.9727 190.1354,-658.399"/>
<polygon fill="#000000" stroke="#000000" points="190.4873,-661.8817 200.1497,-657.5356 189.886,-654.9076 190.4873,-661.8817"/>
<text text-anchor="middle" x="166.25" y="-660.8" font-family="Times,serif" font-size="14.00" fill="#000000">0.059</text>
</g>
<!-- l&#45;&gt;l -->
<g id="edge35" class="edge">
<title>l&#45;&gt;l</title>
<path fill="none" stroke="#000000" d="M209.3666,-723.916C207.1144,-734.1504 209.9922,-744 218,-744 223.2551,-744 226.3009,-739.7581 227.1375,-733.9494"/>
<polygon fill="#000000" stroke="#000000" points="230.6308,-733.7278 226.6334,-723.916 223.6396,-734.0791 230.6308,-733.7278"/>
<text text-anchor="middle" x="218" y="-746.8" font-family="Times,serif" font-size="14.00" fill="#000000">0.12</text>
</g>
<!-- l&#45;&gt;e -->
<g id="edge33" class="edge">
<title>l&#45;&gt;e</title>
<path fill="none" stroke="#000000" d="M231.8679,-719.5883C245.6301,-731.1648 267.2485,-749.5563 285.5,-766 290.5297,-770.5315 295.8716,-775.4925 300.8576,-780.1898"/>
<polygon fill="#000000" stroke="#000000" points="298.6405,-782.9109 308.3039,-787.2548 303.4586,-777.8328 298.6405,-782.9109"/>
<text text-anchor="middle" x="269.75" y="-768.8" font-family="Times,serif" font-size="14.00" fill="#000000">0.5</text>
</g>
<!-- l&#45;&gt;i -->
<g id="edge34" class="edge">
<title>l&#45;&gt;i</title>
<path fill="none" stroke="#000000" d="M235.9174,-710.2284C256.5283,-712.5956 291.4027,-716 321.5,-716 321.5,-716 321.5,-716 514.5,-716 537.5341,-716 563.5278,-713.4264 582.7292,-711.0317"/>
<polygon fill="#000000" stroke="#000000" points="583.4442,-714.4681 592.9056,-709.7003 582.536,-707.5272 583.4442,-714.4681"/>
<text text-anchor="middle" x="418" y="-718.8" font-family="Times,serif" font-size="14.00" fill="#000000">0.38</text>
</g>
<!-- n&#45;&gt;n -->
<g id="edge39" class="edge">
<title>n&#45;&gt;n</title>
<path fill="none" stroke="#000000" d="M699.135,-482.2903C697.1179,-492.3892 699.9063,-502 707.5,-502 712.3647,-502 715.2573,-498.0557 716.1778,-492.5656"/>
<polygon fill="#000000" stroke="#000000" points="719.6677,-492.1791 715.865,-482.2903 712.671,-492.3922 719.6677,-492.1791"/>
<text text-anchor="middle" x="707.5" y="-504.8" font-family="Times,serif" font-size="14.00" fill="#000000">0.17</text>
</g>
<!-- n&#45;&gt;t -->
<g id="edge41" class="edge">
<title>n&#45;&gt;t</title>
<path fill="none" stroke="#000000" d="M722.1563,-476.6315C737.7433,-487.9382 762.6159,-505.9805 780.8548,-519.2107"/>
<polygon fill="#000000" stroke="#000000" points="779.056,-522.2298 789.2058,-525.2685 783.1663,-516.5636 779.056,-522.2298"/>
<text text-anchor="middle" x="755.75" y="-511.8" font-family="Times,serif" font-size="14.00" fill="#000000">0.17</text>
</g>
<!-- n&#45;&gt;i -->
<g id="edge38" class="edge">
<title>n&#45;&gt;i</title>
<path fill="none" stroke="#000000" d="M706.3506,-484.4557C703.7686,-516.2478 695.695,-582.7639 671.5,-633 661.6283,-653.4965 644.9792,-673.2624 631.6426,-687.2021"/>
<polygon fill="#000000" stroke="#000000" points="628.7798,-685.1204 624.2493,-694.6978 633.7635,-690.036 628.7798,-685.1204"/>
<text text-anchor="middle" x="659.25" y="-671.8" font-family="Times,serif" font-size="14.00" fill="#000000">0.17</text>
</g>
<!-- d -->
<g id="node12" class="node">
<title>d</title>
<ellipse fill="none" stroke="#000000" cx="804" cy="-221" rx="18" ry="18"/>
<text text-anchor="middle" x="804" y="-216.8" font-family="Times,serif" font-size="14.00" fill="#000000">d</text>
</g>
<!-- n&#45;&gt;d -->
<g id="edge37" class="edge">
<title>n&#45;&gt;d</title>
<path fill="none" stroke="#000000" d="M714.1328,-449.1602C730.6256,-407.2873 773.5928,-298.1997 793.5416,-247.5523"/>
<polygon fill="#000000" stroke="#000000" points="796.9124,-248.5447 797.3207,-237.9577 790.3994,-245.9793 796.9124,-248.5447"/>
<text text-anchor="middle" x="755.75" y="-374.8" font-family="Times,serif" font-size="14.00" fill="#000000">0.17</text>
</g>
<!-- s -->
<g id="node14" class="node">
<title>s</title>
<ellipse fill="none" stroke="#000000" cx="418" cy="-435" rx="18" ry="18"/>
<text text-anchor="middle" x="418" y="-430.8" font-family="Times,serif" font-size="14.00" fill="#000000">s</text>
</g>
<!-- n&#45;&gt;s -->
<g id="edge40" class="edge">
<title>n&#45;&gt;s</title>
<path fill="none" stroke="#000000" d="M689.3973,-464.0615C640.4614,-458.8214 505.2636,-444.3443 446.2117,-438.0209"/>
<polygon fill="#000000" stroke="#000000" points="446.4254,-434.5239 436.1095,-436.9392 445.68,-441.4841 446.4254,-434.5239"/>
<text text-anchor="middle" x="562.75" y="-453.8" font-family="Times,serif" font-size="14.00" fill="#000000">0.33</text>
</g>
<!-- r&#45;&gt;a -->
<g id="edge43" class="edge">
<title>r&#45;&gt;a</title>
<path fill="none" stroke="#000000" d="M979.4689,-112.1966C971.2598,-76.5929 947.343,0 893.5,0 114.5,0 114.5,0 114.5,0 76.6302,0 70.7087,-26.0156 54,-60 31.7224,-105.3111 22.2623,-256.1759 19.2041,-319.5635"/>
<polygon fill="#000000" stroke="#000000" points="15.7035,-319.4976 18.7363,-329.649 22.6959,-319.822 15.7035,-319.4976"/>
<text text-anchor="middle" x="514.5" y="-2.8" font-family="Times,serif" font-size="14.00" fill="#000000">0.33</text>
</g>
<!-- r&#45;&gt;b -->
<g id="edge44" class="edge">
<title>r&#45;&gt;b</title>
<path fill="none" stroke="#000000" d="M964.83,-130C946.7476,-130 918.2057,-130 893.5,-130 659.25,-130 659.25,-130 659.25,-130 538.9626,-130 544.996,-232.1185 436,-283 337.3104,-329.0703 289.6684,-287.18 200,-349 169.5188,-370.0146 166.4033,-382.5665 150.5,-416 133.1028,-452.5742 123.3334,-498.6724 118.4884,-527.7519"/>
<polygon fill="#000000" stroke="#000000" points="114.9715,-527.5844 116.867,-538.0083 121.8857,-528.6775 114.9715,-527.5844"/>
<text text-anchor="middle" x="562.75" y="-182.8" font-family="Times,serif" font-size="14.00" fill="#000000">0.67</text>
</g>
<!-- t&#45;&gt;a -->
<g id="edge47" class="edge">
<title>t&#45;&gt;a</title>
<path fill="none" stroke="#000000" d="M802.5669,-517.8772C798.9991,-476.9641 788.4944,-379.0565 768,-354 646.5926,-205.5668 561.5107,-188 369.75,-188 114.5,-188 114.5,-188 114.5,-188 53.5582,-188 30.0919,-274.1663 21.9177,-320.0322"/>
<polygon fill="#000000" stroke="#000000" points="18.455,-319.5197 20.2754,-329.957 25.3611,-320.6626 18.455,-319.5197"/>
<text text-anchor="middle" x="418" y="-191.8" font-family="Times,serif" font-size="14.00" fill="#000000">0.1</text>
</g>
<!-- t&#45;&gt;b -->
<g id="edge48" class="edge">
<title>t&#45;&gt;b</title>
<path fill="none" stroke="#000000" d="M785.8249,-536.3067C744.1387,-536.8492 638.4625,-537.3081 550.5,-530 409.7835,-518.3089 376.845,-495.0253 236,-485 197.9691,-482.293 181.9796,-470.4893 150.5,-492 137.667,-500.7691 128.892,-515.702 123.2206,-528.9387"/>
<polygon fill="#000000" stroke="#000000" points="119.8264,-528.011 119.4727,-538.6 126.3525,-530.5427 119.8264,-528.011"/>
<text text-anchor="middle" x="466.25" y="-523.8" font-family="Times,serif" font-size="14.00" fill="#000000">0.2</text>
</g>
<!-- t&#45;&gt;l -->
<g id="edge50" class="edge">
<title>t&#45;&gt;l</title>
<path fill="none" stroke="#000000" d="M793.7471,-550.9184C777.9081,-572.0077 745.3341,-608 707.5,-608 562.75,-608 562.75,-608 562.75,-608 470.2847,-608 445.7521,-614.4065 357.5,-642 315.4105,-655.16 269.7773,-678.6806 242.556,-693.7992"/>
<polygon fill="#000000" stroke="#000000" points="240.7294,-690.8109 233.7313,-698.7657 244.1626,-696.9112 240.7294,-690.8109"/>
<text text-anchor="middle" x="514.5" y="-611.8" font-family="Times,serif" font-size="14.00" fill="#000000">0.2</text>
</g>
<!-- t&#45;&gt;t -->
<g id="edge52" class="edge">
<title>t&#45;&gt;t</title>
<path fill="none" stroke="#000000" d="M796.3321,-552.2903C794.4831,-562.3892 797.0391,-572 804,-572 808.4594,-572 811.1109,-568.0557 811.9546,-562.5656"/>
<polygon fill="#000000" stroke="#000000" points="815.4456,-562.1887 811.6679,-552.2903 808.4483,-562.384 815.4456,-562.1887"/>
<text text-anchor="middle" x="804" y="-574.8" font-family="Times,serif" font-size="14.00" fill="#000000">0.2</text>
</g>
<!-- h -->
<g id="node15" class="node">
<title>h</title>
<ellipse fill="none" stroke="#000000" cx="893.5" cy="-358" rx="18" ry="18"/>
<text text-anchor="middle" x="893.5" y="-353.8" font-family="Times,serif" font-size="14.00" fill="#000000">h</text>
</g>
<!-- t&#45;&gt;h -->
<g id="edge49" class="edge">
<title>t&#45;&gt;h</title>
<path fill="none" stroke="#000000" d="M812.1004,-519.8897C827.7029,-488.8591 862.0316,-420.5851 880.7375,-383.3825"/>
<polygon fill="#000000" stroke="#000000" points="883.9882,-384.7086 885.3534,-374.2021 877.7342,-381.564 883.9882,-384.7086"/>
<text text-anchor="middle" x="848.75" y="-464.8" font-family="Times,serif" font-size="14.00" fill="#000000">0.2</text>
</g>
<!-- o -->
<g id="node17" class="node">
<title>o</title>
<ellipse fill="none" stroke="#000000" cx="893.5" cy="-455" rx="18" ry="18"/>
<text text-anchor="middle" x="893.5" y="-450.8" font-family="Times,serif" font-size="14.00" fill="#000000">o</text>
</g>
<!-- t&#45;&gt;o -->
<g id="edge51" class="edge">
<title>t&#45;&gt;o</title>
<path fill="none" stroke="#000000" d="M817.5931,-523.6978C832.1336,-510.5384 855.3864,-489.4939 872.3281,-474.1611"/>
<polygon fill="#000000" stroke="#000000" points="875.0064,-476.4578 880.0722,-467.1525 870.3092,-471.2677 875.0064,-476.4578"/>
<text text-anchor="middle" x="848.75" y="-504.8" font-family="Times,serif" font-size="14.00" fill="#000000">0.1</text>
</g>
<!-- u&#45;&gt;b -->
<g id="edge53" class="edge">
<title>u&#45;&gt;b</title>
<path fill="none" stroke="#000000" d="M200.8945,-518.0727C187.1381,-523.0794 167.3884,-530.5459 150.5,-538 146.968,-539.5589 143.2838,-541.2834 139.6775,-543.0293"/>
<polygon fill="#000000" stroke="#000000" points="137.8707,-540.0187 130.4717,-547.6019 140.9847,-546.2879 137.8707,-540.0187"/>
<text text-anchor="middle" x="166.25" y="-540.8" font-family="Times,serif" font-size="14.00" fill="#000000">0.33</text>
</g>
<!-- u&#45;&gt;n -->
<g id="edge55" class="edge">
<title>u&#45;&gt;n</title>
<path fill="none" stroke="#000000" d="M235.5328,-506.2157C263.5604,-497.498 320.3361,-482 369.75,-482 369.75,-482 369.75,-482 611,-482 634.4991,-482 660.7888,-477.3253 679.9865,-473.0295"/>
<polygon fill="#000000" stroke="#000000" points="680.9229,-476.4049 689.8596,-470.714 679.3246,-469.5898 680.9229,-476.4049"/>
<text text-anchor="middle" x="466.25" y="-484.8" font-family="Times,serif" font-size="14.00" fill="#000000">0.33</text>
</g>
<!-- m -->
<g id="node16" class="node">
<title>m</title>
<ellipse fill="none" stroke="#000000" cx="321.5" cy="-566" rx="18" ry="18"/>
<text text-anchor="middle" x="321.5" y="-561.8" font-family="Times,serif" font-size="14.00" fill="#000000">m</text>
</g>
<!-- u&#45;&gt;m -->
<g id="edge54" class="edge">
<title>u&#45;&gt;m</title>
<path fill="none" stroke="#000000" d="M235.2646,-517.0957C249.2868,-521.595 269.3189,-528.8562 285.5,-538 290.2887,-540.7061 295.1295,-544.0054 299.6413,-547.3766"/>
<polygon fill="#000000" stroke="#000000" points="297.7905,-550.3741 307.8123,-553.8113 302.1213,-544.8746 297.7905,-550.3741"/>
<text text-anchor="middle" x="269.75" y="-540.8" font-family="Times,serif" font-size="14.00" fill="#000000">0.33</text>
</g>
<!-- w&#45;&gt;i -->
<g id="edge57" class="edge">
<title>w&#45;&gt;i</title>
<path fill="none" stroke="#000000" d="M519.9648,-415.4985C536.0209,-466.9116 583.1368,-617.7801 602.5208,-679.8491"/>
<polygon fill="#000000" stroke="#000000" points="599.2733,-681.1914 605.5952,-689.6934 605.955,-679.1047 599.2733,-681.1914"/>
<text text-anchor="middle" x="562.75" y="-591.8" font-family="Times,serif" font-size="14.00" fill="#000000">0.5</text>
</g>
<!-- w&#45;&gt;h -->
<g id="edge56" class="edge">
<title>w&#45;&gt;h</title>
<path fill="none" stroke="#000000" d="M532.6321,-399.2001C552.0197,-400.3784 583.6684,-402 611,-402 611,-402 611,-402 804,-402 828.9178,-402 854.1044,-388.0947 871.3828,-375.9183"/>
<polygon fill="#000000" stroke="#000000" points="873.702,-378.5561 879.6541,-369.7912 869.5353,-372.9312 873.702,-378.5561"/>
<text text-anchor="middle" x="707.5" y="-404.8" font-family="Times,serif" font-size="14.00" fill="#000000">0.5</text>
</g>
<!-- e&#45;&gt;a -->
<g id="edge18" class="edge">
<title>e&#45;&gt;a</title>
<path fill="none" stroke="#000000" d="M307.2731,-811.3711C300.9664,-815.7858 293.2324,-820.3982 285.5,-823 249.4448,-835.1318 235.5583,-840.5192 200,-827 138.454,-803.6003 129.4799,-777.9893 96.5,-721 67.5302,-670.9402 67.6275,-654.2097 54,-598 34.8222,-518.8967 24.5286,-423.0717 20.3183,-376.3611"/>
<polygon fill="#000000" stroke="#000000" points="23.7796,-375.7649 19.4215,-366.1079 16.8062,-376.3748 23.7796,-375.7649"/>
<text text-anchor="middle" x="166.25" y="-821.8" font-family="Times,serif" font-size="14.00" fill="#000000">0.11</text>
</g>
<!-- e&#45;&gt;b -->
<g id="edge19" class="edge">
<title>e&#45;&gt;b</title>
<path fill="none" stroke="#000000" d="M303.926,-804.6C279.2877,-810.065 233.7188,-816.517 200,-800 171.6329,-786.1045 165.0148,-777.0553 150.5,-749 135.8243,-720.6336 123.3432,-630.3724 117.7081,-584.0365"/>
<polygon fill="#000000" stroke="#000000" points="121.1778,-583.5733 116.5181,-574.0582 114.227,-584.4023 121.1778,-583.5733"/>
<text text-anchor="middle" x="218" y="-811.8" font-family="Times,serif" font-size="14.00" fill="#000000">0.22</text>
</g>
<!-- e&#45;&gt;r -->
<g id="edge22" class="edge">
<title>e&#45;&gt;r</title>
<path fill="none" stroke="#000000" d="M326.1859,-817.5032C336.5151,-851.6839 364.6703,-924 418,-924 418,-924 418,-924 893.5,-924 972.2528,-924 981.714,-299.2395 982.8466,-158.1021"/>
<polygon fill="#000000" stroke="#000000" points="986.3466,-158.1008 982.9192,-148.0756 979.3468,-158.05 986.3466,-158.1008"/>
<text text-anchor="middle" x="659.25" y="-926.8" font-family="Times,serif" font-size="14.00" fill="#000000">0.11</text>
</g>
<!-- e&#45;&gt;e -->
<g id="edge20" class="edge">
<title>e&#45;&gt;e</title>
<path fill="none" stroke="#000000" d="M313.135,-816.2903C311.1179,-826.3892 313.9063,-836 321.5,-836 326.3647,-836 329.2573,-832.0557 330.1778,-826.5656"/>
<polygon fill="#000000" stroke="#000000" points="333.6677,-826.1791 329.865,-816.2903 326.671,-826.3922 333.6677,-826.1791"/>
<text text-anchor="middle" x="321.5" y="-838.8" font-family="Times,serif" font-size="14.00" fill="#000000">0.11</text>
</g>
<!-- g -->
<g id="node13" class="node">
<title>g</title>
<ellipse fill="none" stroke="#000000" cx="707.5" cy="-806" rx="18" ry="18"/>
<text text-anchor="middle" x="707.5" y="-801.8" font-family="Times,serif" font-size="14.00" fill="#000000">g</text>
</g>
<!-- e&#45;&gt;g -->
<g id="edge21" class="edge">
<title>e&#45;&gt;g</title>
<path fill="none" stroke="#000000" d="M339.6205,-801.8002C358.9985,-803.5675 390.6391,-806 418,-806 418,-806 418,-806 611,-806 633.9346,-806 659.9352,-806 679.1646,-806"/>
<polygon fill="#000000" stroke="#000000" points="679.3587,-809.5001 689.3587,-806 679.3586,-802.5001 679.3587,-809.5001"/>
<text text-anchor="middle" x="514.5" y="-808.8" font-family="Times,serif" font-size="14.00" fill="#000000">0.22</text>
</g>
<!-- e&#45;&gt;s -->
<g id="edge23" class="edge">
<title>e&#45;&gt;s</title>
<path fill="none" stroke="#000000" d="M330.4117,-783.9145C343.7382,-759.1419 368.7102,-709.8149 382,-665 402.9745,-594.2713 412.3408,-507.4745 415.9893,-463.4807"/>
<polygon fill="#000000" stroke="#000000" points="419.4987,-463.4985 416.7972,-453.2538 412.5204,-462.9471 419.4987,-463.4985"/>
<text text-anchor="middle" x="369.75" y="-727.8" font-family="Times,serif" font-size="14.00" fill="#000000">0.22</text>
</g>
<!-- i&#45;&gt;n -->
<g id="edge31" class="edge">
<title>i&#45;&gt;n</title>
<path fill="none" stroke="#000000" d="M617.7857,-690.0533C634.3619,-648.6557 677.0117,-542.1419 696.942,-492.3676"/>
<polygon fill="#000000" stroke="#000000" points="700.2537,-493.5124 700.7218,-482.9279 693.7553,-490.9103 700.2537,-493.5124"/>
<text text-anchor="middle" x="659.25" y="-617.8" font-family="Times,serif" font-size="14.00" fill="#000000">0.2</text>
</g>
<!-- i&#45;&gt;t -->
<g id="edge32" class="edge">
<title>i&#45;&gt;t</title>
<path fill="none" stroke="#000000" d="M628.4524,-702.3442C660.8106,-692.8136 730.2462,-668.0022 768,-622 782.0568,-604.8721 791.3743,-581.4704 797.0015,-563.4025"/>
<polygon fill="#000000" stroke="#000000" points="800.3831,-564.3085 799.8255,-553.7284 793.6635,-562.347 800.3831,-564.3085"/>
<text text-anchor="middle" x="707.5" y="-680.8" font-family="Times,serif" font-size="14.00" fill="#000000">0.4</text>
</g>
<!-- i&#45;&gt;e -->
<g id="edge29" class="edge">
<title>i&#45;&gt;e</title>
<path fill="none" stroke="#000000" d="M596.5003,-717.6712C590.1475,-721.9678 582.4527,-726.681 575,-730 533.9557,-748.2787 406.1859,-779.8265 349.3015,-793.4366"/>
<polygon fill="#000000" stroke="#000000" points="348.1453,-790.1141 339.2286,-795.8362 349.7675,-796.9235 348.1453,-790.1141"/>
<text text-anchor="middle" x="466.25" y="-769.8" font-family="Times,serif" font-size="14.00" fill="#000000">0.1</text>
</g>
<!-- i&#45;&gt;g -->
<g id="edge30" class="edge">
<title>i&#45;&gt;g</title>
<path fill="none" stroke="#000000" d="M628.41,-712.3196C641.56,-717.0591 659.3566,-725.1036 671.5,-737 683.4607,-748.7174 692.2774,-765.259 698.1913,-779.2087"/>
<polygon fill="#000000" stroke="#000000" points="695.0536,-780.7918 701.9879,-788.8021 701.5624,-778.2158 695.0536,-780.7918"/>
<text text-anchor="middle" x="659.25" y="-739.8" font-family="Times,serif" font-size="14.00" fill="#000000">0.3</text>
</g>
<!-- y&#45;&gt;b -->
<g id="edge58" class="edge">
<title>y&#45;&gt;b</title>
<path fill="none" stroke="#000000" d="M202.6389,-644.0631C196.2755,-639.9788 188.805,-635.2252 182,-631 168.11,-622.3758 162.225,-623.3945 150.5,-612 141.4253,-603.181 133.528,-591.6627 127.4609,-581.3669"/>
<polygon fill="#000000" stroke="#000000" points="130.3616,-579.3833 122.4223,-572.3678 124.2538,-582.8031 130.3616,-579.3833"/>
<text text-anchor="middle" x="166.25" y="-633.8" font-family="Times,serif" font-size="14.00" fill="#000000">1.0</text>
</g>
<!-- d&#45;&gt;a -->
<g id="edge17" class="edge">
<title>d&#45;&gt;a</title>
<path fill="none" stroke="#000000" d="M786.8509,-215.2951C728.9021,-196.543 534.774,-138 369.75,-138 114.5,-138 114.5,-138 114.5,-138 83.2108,-138 72.1553,-148.5167 54,-174 37.5403,-197.1034 26.1501,-276.8159 21.0405,-319.8758"/>
<polygon fill="#000000" stroke="#000000" points="17.5444,-319.6421 19.8776,-329.9768 24.4985,-320.4428 17.5444,-319.6421"/>
<text text-anchor="middle" x="418" y="-143.8" font-family="Times,serif" font-size="14.00" fill="#000000">1.0</text>
</g>
<!-- g&#45;&gt;a -->
<g id="edge24" class="edge">
<title>g&#45;&gt;a</title>
<path fill="none" stroke="#000000" d="M704.8883,-824.0487C699.7854,-856.9632 687.5707,-924.9264 671.5,-942 652.0895,-962.6218 639.32,-962 611,-962 114.5,-962 114.5,-962 114.5,-962 54.3979,-962 25.8187,-496.9517 19.4159,-376.3105"/>
<polygon fill="#000000" stroke="#000000" points="22.8967,-375.8476 18.8808,-366.0433 15.9061,-376.212 22.8967,-375.8476"/>
<text text-anchor="middle" x="369.75" y="-964.8" font-family="Times,serif" font-size="14.00" fill="#000000">0.4</text>
</g>
<!-- g&#45;&gt;b -->
<g id="edge25" class="edge">
<title>g&#45;&gt;b</title>
<path fill="none" stroke="#000000" d="M697.7009,-821.3797C682.2125,-843.5872 649.8122,-882 611,-882 466.25,-882 466.25,-882 466.25,-882 319.1805,-882 220.5596,-912.3101 150.5,-783 124.8093,-735.5823 140.9736,-716.2601 132.5,-663 128.2209,-636.1042 123.0342,-605.4609 119.3297,-583.8807"/>
<polygon fill="#000000" stroke="#000000" points="122.7368,-583.0417 117.5906,-573.7807 115.8384,-584.2297 122.7368,-583.0417"/>
<text text-anchor="middle" x="418" y="-885.8" font-family="Times,serif" font-size="14.00" fill="#000000">0.2</text>
</g>
<!-- g&#45;&gt;i -->
<g id="edge26" class="edge">
<title>g&#45;&gt;i</title>
<path fill="none" stroke="#000000" d="M692.7577,-795.1033C679.9791,-785.3125 661.3391,-770.1791 647,-755 639.9608,-747.5484 633.0139,-738.733 627.1284,-730.7033"/>
<polygon fill="#000000" stroke="#000000" points="629.8617,-728.5081 621.2045,-722.4004 624.1634,-732.5737 629.8617,-728.5081"/>
<text text-anchor="middle" x="659.25" y="-779.8" font-family="Times,serif" font-size="14.00" fill="#000000">0.4</text>
</g>
<!-- s&#45;&gt;a -->
<g id="edge45" class="edge">
<title>s&#45;&gt;a</title>
<path fill="none" stroke="#000000" d="M402.2115,-425.9239C377.8965,-412.3131 329.4813,-386.6524 285.5,-372 201.8373,-344.1278 95.795,-344.339 46.1,-346.3515"/>
<polygon fill="#000000" stroke="#000000" points="45.9299,-342.8555 36.102,-346.8132 46.2529,-349.848 45.9299,-342.8555"/>
<text text-anchor="middle" x="218" y="-360.8" font-family="Times,serif" font-size="14.00" fill="#000000">0.5</text>
</g>
<!-- s&#45;&gt;w -->
<g id="edge46" class="edge">
<title>s&#45;&gt;w</title>
<path fill="none" stroke="#000000" d="M434.3648,-427.3782C440.4784,-424.6233 447.5115,-421.5627 454,-419 464.8926,-414.6978 477.0644,-410.3806 487.6184,-406.7891"/>
<polygon fill="#000000" stroke="#000000" points="488.7795,-410.0913 497.1469,-403.5923 486.553,-403.4549 488.7795,-410.0913"/>
<text text-anchor="middle" x="466.25" y="-421.8" font-family="Times,serif" font-size="14.00" fill="#000000">0.5</text>
</g>
<!-- h&#45;&gt;a -->
<g id="edge27" class="edge">
<title>h&#45;&gt;a</title>
<path fill="none" stroke="#000000" d="M892.6358,-339.7167C888.7249,-279.6198 867.5617,-92 755.75,-92 114.5,-92 114.5,-92 114.5,-92 79.0439,-92 71.5479,-113.1908 54,-144 37.1627,-173.5616 25.55,-270.8468 20.6356,-319.6108"/>
<polygon fill="#000000" stroke="#000000" points="17.1299,-319.4979 19.6361,-329.792 24.0964,-320.1818 17.1299,-319.4979"/>
<text text-anchor="middle" x="466.25" y="-94.8" font-family="Times,serif" font-size="14.00" fill="#000000">0.75</text>
</g>
<!-- h&#45;&gt;b -->
<g id="edge28" class="edge">
<title>h&#45;&gt;b</title>
<path fill="none" stroke="#000000" d="M876.2573,-352.7007C852.2661,-345.6311 807.3264,-333.4846 768,-329 757.1812,-327.7663 754.3716,-328.3858 743.5,-329 499.1169,-342.8075 437.2499,-357.7818 200,-418 177.7186,-423.6554 166.6775,-416.668 150.5,-433 137.2058,-446.4211 125.7089,-496.1537 119.474,-528.1221"/>
<polygon fill="#000000" stroke="#000000" points="115.9865,-527.728 117.5663,-538.2044 122.8645,-529.0295 115.9865,-527.728"/>
<text text-anchor="middle" x="514.5" y="-353.8" font-family="Times,serif" font-size="14.00" fill="#000000">0.25</text>
</g>
<!-- m&#45;&gt;b -->
<g id="edge36" class="edge">
<title>m&#45;&gt;b</title>
<path fill="none" stroke="#000000" d="M303.3865,-565.1249C267.2081,-563.3772 185.7822,-559.4436 142.609,-557.3579"/>
<polygon fill="#000000" stroke="#000000" points="142.665,-553.8566 132.5078,-556.8699 142.3272,-560.8485 142.665,-553.8566"/>
<text text-anchor="middle" x="218" y="-563.8" font-family="Times,serif" font-size="14.00" fill="#000000">1.0</text>
</g>
<!-- o&#45;&gt;r -->
<g id="edge42" class="edge">
<title>o&#45;&gt;r</title>
<path fill="none" stroke="#000000" d="M898.3119,-437.5266C913.0325,-384.0718 957.5423,-222.4442 975.4335,-157.4761"/>
<polygon fill="#000000" stroke="#000000" points="978.8836,-158.1302 978.1643,-147.5598 972.1348,-156.2716 978.8836,-158.1302"/>
<text text-anchor="middle" x="938.25" y="-323.8" font-family="Times,serif" font-size="14.00" fill="#000000">1.0</text>
</g>
</g>
</svg>
